#!OML:ASF E:\emotionWalksFemale\Project 1\Capture day 1\Session 1\Female1.ASF
:FULLY-SPECIFIED
:DEGREES
2253
root 10.358 15.4224 4.65919 -0.897416 -2.53277 0.502111
lowerback 8.1153 0.75177 -1.99211
upperback -0.368771 0.798072 -0.212126
thorax -4.96317 0.442723 0.801696
lowerneck -5.41396 -3.44882 -3.68928
upperneck 45.5953 -7.52215 6.31955
head 18.6261 -2.96102 2.48747
rclavicle 1.41323e-015 4.96962e-015
rhumerus -41.9001 -2.07993 -81.8675
rradius 31.9759
rwrist 18.4268
rhand -7.48606 -49.6268
rfingers 7.12502
rthumb 18.4033 -78.7763
lclavicle 1.41323e-015 4.96962e-015
lhumerus -33.6434 6.09903 82.9214
lradius 36.9339
lwrist -10.8623
lhand -1.81253 -34.7989
lfingers 7.12502
lthumb 23.8532 -6.25996
rfemur -24.7405 6.66252 22.0319
rtibia 45.2345
rfoot -19.8899 -19.7406
rtoes -10.1123
lfemur -3.63546 -17.1903 -31.7028
ltibia 28.6405
lfoot -22.9393 11.3704
ltoes 1.93671
2254
root 10.3516 15.4325 4.71952 -0.963138 -2.42627 0.461732
lowerback 8.14303 0.741788 -1.88364
upperback -0.297425 0.793395 -0.253235
thorax -4.90191 0.436169 0.698841
lowerneck -5.5495 -3.43965 -3.83562
upperneck 45.6843 -7.53305 6.45272
head 18.7431 -2.9706 2.58007
rclavicle 2.51587e-015 -1.68967e-015
rhumerus -41.7953 -2.29986 -81.7955
rradius 31.894
rwrist 18.7383
rhand -6.96567 -49.787
rfingers 7.12502
rthumb 18.9038 -78.8884
lclavicle 2.51587e-015 -1.68967e-015
lhumerus -33.5936 6.31645 82.8565
lradius 36.5886
lwrist -11.2962
lhand -2.17502 -35.3888
lfingers 7.12502
lthumb 23.5055 -6.80492
rfemur -24.9938 7.10621 22.0983
rtibia 43.9805
rfoot -18.7844 -20.6
rtoes -13.7483
lfemur -3.20283 -17.1032 -31.7152
ltibia 28.4608
lfoot -22.9461 11.1423
ltoes 2.10808
2255
root 10.3433 15.4222 4.77641 -0.990626 -2.34581 0.358955
lowerback 8.10863 0.714173 -1.7455
upperback -0.235981 0.770302 -0.275837
thorax -4.81543 0.420077 0.601454
lowerneck -5.47523 -3.42074 -3.92235
upperneck 45.6373 -7.50391 6.51972
head 18.6983 -2.9682 2.63285
rclavicle 1.49772e-014 -1.07344e-014
rhumerus -41.6473 -2.37762 -81.8352
rradius 31.7856
rwrist 18.8439
rhand -6.51379 -50.1725
rfingers 7.12502
rthumb 19.3384 -79.231
lclavicle 1.49772e-014 -1.07344e-014
lhumerus -33.5885 6.61022 82.701
lradius 36.2237
lwrist -11.6698
lhand -2.21588 -36.1614
lfingers 7.12502
lthumb 23.4663 -7.57248
rfemur -25.0269 7.68643 22.1738
rtibia 42.7006
rfoot -19.3933 -20.3429
rtoes -11.7382
lfemur -2.833 -16.9737 -31.6671
ltibia 28.287
lfoot -22.7436 11.225
ltoes -0.0650619
2256
root 10.3345 15.4234 4.83462 -0.977729 -2.29373 0.272309
lowerback 8.03695 0.705164 -1.67146
upperback -0.21539 0.767915 -0.260233
thorax -4.75265 0.416793 0.577328
lowerneck -5.34481 -3.41333 -3.98314
upperneck 45.5816 -7.46653 6.51162
head 18.6239 -2.96766 2.6458
rclavicle -8.11911e-015 3.97569e-016
rhumerus -41.6906 -2.24298 -81.9071
rradius 31.8706
rwrist 18.6013
rhand -6.52204 -50.2742
rfingers 7.12502
rthumb 19.3304 -79.3334
lclavicle -8.11911e-015 3.97569e-016
lhumerus -33.7274 6.59086 82.6844
lradius 35.7521
lwrist -12.2961
lhand -3.51824 -37.1961
lfingers 7.12502
lthumb 22.2165 -8.45286
rfemur -25.2174 8.18052 22.2623
rtibia 41.4641
rfoot -19.324 -20.4301
rtoes -11.8442
lfemur -2.47251 -16.6562 -31.5937
ltibia 28.0475
lfoot -22.4517 11.3258
ltoes -4.11273
2257
root 10.3232 15.4251 4.89397 -1.03638 -2.23388 0.29223
lowerback 8.15013 0.734537 -1.7169
upperback -0.239999 0.799792 -0.264265
thorax -4.84347 0.434293 0.593275
lowerneck -5.41365 -3.43545 -3.99898
upperneck 45.7645 -7.46639 6.41307
head 18.7582 -2.97851 2.60786
rclavicle -2.00027e-014 1.17283e-014
rhumerus -41.9314 -2.13614 -81.9193
rradius 32.0391
rwrist 18.4242
rhand -6.64357 -50.3349
rfingers 7.12502
rthumb 19.2136 -79.4058
lclavicle -2.00027e-014 1.17283e-014
lhumerus -33.9669 6.35712 82.7701
lradius 35.0525
lwrist -13.4101
lhand -5.95003 -37.3178
lfingers 7.12502
lthumb 19.8804 -8.31463
rfemur -25.3138 8.7335 22.2248
rtibia 40.2661
rfoot -18.8396 -20.6353
rtoes -12.7405
lfemur -2.06225 -16.3989 -31.6394
ltibia 27.8709
lfoot -22.3571 11.3159
ltoes -6.38865
2258
root 10.3164 15.4247 4.9498 -1.07794 -2.05471 0.672188
lowerback 8.1052 0.704363 -2.09513
upperback -0.162413 0.719282 -0.39038
thorax -4.73868 0.400872 0.685789
lowerneck -5.522 -3.4231 -3.88368
upperneck 45.8226 -7.40898 6.26377
head 18.8026 -2.94986 2.52353
rclavicle -1.09829e-014 4.96962e-015
rhumerus -41.9331 -2.18898 -81.8908
rradius 32.171
rwrist 18.5083
rhand -6.55291 -50.4866
rfingers 7.12502
rthumb 19.3008 -79.5488
lclavicle -1.09829e-014 4.96962e-015
lhumerus -33.9983 6.65181 82.6761
lradius 34.306
lwrist -14.4421
lhand -6.49716 -34.6276
lfingers 7.12502
lthumb 19.3544 -5.57075
rfemur -25.3635 9.06538 21.7543
rtibia 39.1084
rfoot -18.7916 -20.4891
rtoes -12.0204
lfemur -1.66333 -16.31 -32.0938
ltibia 27.6468
lfoot -22.2677 11.2665
ltoes -6.92584
2259
root 10.3087 15.4273 5.0048 -1.14204 -1.86454 0.756322
lowerback 8.36255 0.649785 -2.25266
upperback -0.231827 0.622015 -0.412251
thorax -4.95509 0.358675 0.76045
lowerneck -5.38153 -3.38293 -3.80193
upperneck 45.7507 -7.31524 6.16727
head 18.6934 -2.91301 2.47558
rclavicle 4.43538e-015 -7.95139e-016
rhumerus -42.1292 -2.05092 -81.898
rradius 32.3571
rwrist 18.4861
rhand -6.17758 -50.5679
rfingers 7.12502
rthumb 19.6616 -79.5936
lclavicle 4.43538e-015 -7.95139e-016
lhumerus -34.1999 7.05978 82.4896
lradius 33.7128
lwrist -15.111
lhand -6.65413 -35.1358
lfingers 7.12502
lthumb 19.2034 -6.06394
rfemur -25.3378 9.43043 21.6315
rtibia 37.9116
rfoot -18.8947 -20.4625
rtoes -11.4543
lfemur -1.28978 -16.1599 -32.1904
ltibia 27.4878
lfoot -22.1465 11.0523
ltoes -7.22432
